<?xml version="1.0" encoding="UTF-8"?>
<svg version="1.1" xmlns="http://www.w3.org/2000/svg" width="200" height="200">
<path d="M0 0 C66 0 132 0 200 0 C200 66 200 132 200 200 C134 200 68 200 0 200 C0 134 0 68 0 0 Z " fill="#09225E" transform="translate(0,0)"/>
<path d="M0 0 C19.47 0 38.94 0 59 0 C59 27.72 59 55.44 59 84 C39.53 84 20.06 84 0 84 C0 56.28 0 28.56 0 0 Z " fill="#F5F7F9" transform="translate(97,58)"/>
<path d="M0 0 C6.7134375 -0.0928125 6.7134375 -0.0928125 13.5625 -0.1875 C14.96056885 -0.21481201 16.3586377 -0.24212402 17.79907227 -0.27026367 C31.09834042 -0.35927641 31.09834042 -0.35927641 36.7421875 4.5 C40.55938502 9.55449602 41.79876585 13.68862476 41 20 C39.12616058 25.92133258 36.39946297 29.05483838 31 32 C32.50665385 36.41234342 34.91303136 39.94583076 37.625 43.6875 C42 49.73332055 42 49.73332055 42 52 C38.32989965 53.07475824 35.64993134 53.22147173 32 52 C27.06367257 47.37572122 23.01776359 41.03552718 20 35 C16.34850439 34.39616453 12.69649725 34.25493084 9 34 C9 39.94 9 45.88 9 52 C6.03 52 3.06 52 0 52 C0 34.84 0 17.68 0 0 Z " fill="#F4F7F9" transform="translate(44,74)"/>
<path d="M0 0 C2.80125118 1.54246109 3.50236711 2.37855067 5.375 5.1875 C5.045 5.8475 4.715 6.5075 4.375 7.1875 C3.715 6.919375 3.055 6.65125 2.375 6.375 C1.385 5.983125 0.395 5.59125 -0.625 5.1875 C-1.21796875 4.91164063 -1.8109375 4.63578125 -2.421875 4.3515625 C-7.64331304 2.07501552 -12.10680609 1.4879802 -17.625 3.1875 C-20.81503883 5.12671761 -20.81503883 5.12671761 -22.625 8.1875 C-23.45833333 11.6875 -23.45833333 11.6875 -22.625 15.1875 C-18.84899439 19.91653189 -15.31178406 21.30345712 -9.6875 22.75 C-3.39254293 24.41337334 1.98198909 26.23611988 6.25 31.5 C8.32467588 36.45617015 7.87765279 39.95181189 5.875 44.875 C3.2444822 48.94451186 -0.00374548 50.88149329 -4.625 52.1875 C-13.33662506 53.43385344 -20.01929288 51.33286096 -27.1875 46.4375 C-27.8990625 45.81875 -27.8990625 45.81875 -28.625 45.1875 C-28.295 43.8675 -27.965 42.5475 -27.625 41.1875 C-25.08981851 42.40438712 -22.98581324 43.64989043 -20.6875 45.3125 C-15.01164546 48.63164102 -7.59575449 47.85040842 -1.30859375 46.80078125 C0.60966591 46.30426733 0.60966591 46.30426733 1.625 44.0625 C2.53958984 40.55657228 2.76878802 37.79722355 2.375 34.1875 C-0.72891515 30.02525245 -4.61860442 28.97787832 -9.4375 27.6875 C-15.95459701 25.91289142 -22.42682186 24.14130188 -26.625 18.5 C-27.95154034 14.10583514 -27.81754972 10.6064685 -26.625 6.1875 C-21.15113379 -3.13834613 -9.2989986 -4.41193364 0 0 Z " fill="#1E366A" transform="translate(137.625,74.8125)"/>
<path d="M0 0 C2.536875 -0.061875 5.07375 -0.12375 7.6875 -0.1875 C8.47729248 -0.21481201 9.26708496 -0.24212402 10.08081055 -0.27026367 C14.62928046 -0.32374802 17.38608784 0.23089848 21 3 C23 5 23 5 23.4375 8.3125 C22.89444451 12.88968196 21.51844617 14.15173405 18 17 C14.81453711 18.59273144 11.36800652 18.10141833 7.875 18.0625 C5.27625 18.041875 2.6775 18.02125 0 18 C0 12.06 0 6.12 0 0 Z " fill="#0E1E4B" transform="translate(53,82)"/>
<path d="M0 0 C5.28 0 10.56 0 16 0 C15 6 15 6 14 9 C13.89998097 11.30440971 13.8616791 13.61164407 13.85473633 15.91821289 C13.85137772 16.61769547 13.8480191 17.31717804 13.84455872 18.03785706 C13.835061 20.34947485 13.83310646 22.66102016 13.83203125 24.97265625 C13.82881879 26.57783539 13.82545473 28.18301423 13.82194519 29.78819275 C13.81595755 33.15152669 13.81410501 36.51483494 13.81469727 39.87817383 C13.81479908 44.1949404 13.80112511 48.51154322 13.78392506 52.82827091 C13.77282823 56.14217389 13.77077731 59.45603692 13.77130699 62.76995659 C13.77012421 64.3620199 13.76568581 65.95408415 13.75797462 67.54612923 C13.74821757 69.76793172 13.75103511 71.98937381 13.75708008 74.21118164 C13.75565506 75.47676407 13.75423004 76.7423465 13.75276184 78.04627991 C13.69000436 81.12044516 13.69000436 81.12044516 16 83 C16 84.32 16 85.64 16 87 C9.32235335 88.3083923 2.83093598 87.8972663 -3.9375 87.5625 C-5.09830078 87.51029297 -6.25910156 87.45808594 -7.45507812 87.40429688 C-10.30370617 87.27534663 -13.15191787 87.14041411 -16 87 C-16 86.67 -16 86.34 -16 86 C-6.76 86 2.48 86 12 86 C12 58.28 12 30.56 12 2 C8.04 2 4.08 2 0 2 C0 1.34 0 0.68 0 0 Z " fill="#11306D" transform="translate(144,56)"/>
<path d="M0 0 C3.77332273 -0.47579551 7.24933112 -0.7164199 11 0 C13.42975739 2.34739273 14.74205155 4.88640384 16 8 C15.01 8.99 14.02 9.98 13 11 C12.5359375 9.329375 12.5359375 9.329375 12.0625 7.625 C11.17673517 4.2054845 11.17673517 4.2054845 10 2 C6.95613276 1.91773332 4.92824652 2.02391783 2 3 C1.9729957 4.45823212 1.95360213 5.91660675 1.9375 7.375 C1.92589844 8.18710938 1.91429687 8.99921875 1.90234375 9.8359375 C1.85533666 12.04937142 1.85533666 12.04937142 3 14 C2.71887936 16.00800456 2.38932033 18.01014051 2 20 C0 18 0 18 -0.22705078 16.12060547 C-0.21657715 15.37697754 -0.20610352 14.63334961 -0.1953125 13.8671875 C-0.18886719 13.06152344 -0.18242188 12.25585938 -0.17578125 11.42578125 C-0.15064453 10.16314453 -0.15064453 10.16314453 -0.125 8.875 C-0.11597656 8.02550781 -0.10695312 7.17601563 -0.09765625 6.30078125 C-0.07405647 4.20040116 -0.03818483 2.10016556 0 0 Z " fill="#0A1538" transform="translate(53,108)"/>
<path d="M0 0 C2.16100182 1.07799395 4.31880719 2.16167 6.47265625 3.25390625 C7.32730469 3.68574219 8.18195313 4.11757812 9.0625 4.5625 C9.91972656 4.99691406 10.77695313 5.43132812 11.66015625 5.87890625 C14.06506992 7.09098879 14.06506992 7.09098879 17 8 C17 8.66 17 9.32 17 10 C9.01809472 10.5601337 5.61266953 8.40844635 -1 4 C-0.67 2.68 -0.34 1.36 0 0 Z " fill="#273B62" transform="translate(110,116)"/>
<path d="M0 0 C0.66 0.33 1.32 0.66 2 1 C1.525625 1.350625 1.05125 1.70125 0.5625 2.0625 C-1.85533169 5.0606113 -2 7.16770049 -2 11 C-0.62750436 13.89692807 1.07844214 16.44013918 3 19 C1.02 19.99 1.02 19.99 -1 21 C-4.43565466 16.10679488 -5.59599783 13.0450919 -4.62890625 7.08984375 C-3.73518008 4.12000835 -2.17134663 2.17134663 0 0 Z " fill="#293B6B" transform="translate(115,76)"/>
<path d="M0 0 C1.953125 0.171875 1.953125 0.171875 4.25 0.75 C5.44689453 1.04777344 5.44689453 1.04777344 6.66796875 1.3515625 C9.48331779 2.13438987 12.24970885 3.012716 15 4 C14.67 4.99 14.34 5.98 14 7 C7.58076669 6.70887831 3.37899794 5.54784971 -2 2 C-1.34 1.34 -0.68 0.68 0 0 Z " fill="#182F61" transform="translate(117,95)"/>
<path d="M0 0 C5.42892065 0.43431365 8.70796704 1.62768839 13 5 C13.33 5.66 13.66 6.32 14 7 C13.67 7.66 13.34 8.32 13 9 C8.25981099 7.16508812 3.63586749 5.08058541 -1 3 C-0.67 2.01 -0.34 1.02 0 0 Z " fill="#263D6D" transform="translate(129,73)"/>
<path d="M0 0 C4.62 0 9.24 0 14 0 C14 0.33 14 0.66 14 1 C9.71 1 5.42 1 1 1 C1.165 3.083125 1.33 5.16625 1.5 7.3125 C1.75706131 10.557899 2 13.74441735 2 17 C1.34 17 0.68 17 0 17 C0 11.39 0 5.78 0 0 Z " fill="#0D1635" transform="translate(53,82)"/>
<path d="M0 0 C0.66 0.99 1.32 1.98 2 3 C1.01 3.33 0.02 3.66 -1 4 C-1 4.66 -1 5.32 -1 6 C-1.99 6.33 -2.98 6.66 -4 7 C-4.33 7.66 -4.66 8.32 -5 9 C-4.34 9.33 -3.68 9.66 -3 10 C-3.99 11.485 -3.99 11.485 -5 13 C-6.5625 11.1875 -6.5625 11.1875 -8 9 C-6.6645075 4.99352249 -4.47234113 4.24255364 -1 2 C-0.67 1.34 -0.34 0.68 0 0 Z " fill="#1C294F" transform="translate(82,99)"/>
<path d="M0 0 C-1.33333333 0.66666667 -2.66666667 1.33333333 -4 2 C-5.546875 2.804375 -5.546875 2.804375 -7.125 3.625 C-10 5 -10 5 -12 5 C-12.66 7.97 -13.32 10.94 -14 14 C-14.33 14 -14.66 14 -15 14 C-15.31346682 10.00329808 -15.40395059 7.67325099 -13.3125 4.1875 C-9.13625724 0.23700009 -5.64659826 -0.26263248 0 0 Z " fill="#CCD9E7" transform="translate(129,76)"/>
<path d="M0 0 C2.52588702 2.36292656 3.88820837 3.66462511 5 7 C5.03954234 9.33299825 5.04401732 11.66708189 5 14 C4.34 14 3.68 14 3 14 C0.88838269 4.58997722 0.88838269 4.58997722 0 0 Z " fill="#0F1F49" transform="translate(82,78)"/>
<path d="M0 0 C7.625 0.875 7.625 0.875 11 2 C11 2.66 11 3.32 11 4 C5.62694301 4.35233161 5.62694301 4.35233161 3 4 C1 2 1 2 0 0 Z " fill="#122B5E" transform="translate(116,122)"/>
<path d="M0 0 C5.28 0 10.56 0 16 0 C15.67 1.98 15.34 3.96 15 6 C14.67 4.68 14.34 3.36 14 2 C9.38 2 4.76 2 0 2 C0 1.34 0 0.68 0 0 Z " fill="#0F317B" transform="translate(144,56)"/>
<path d="M0 0 C2.25 0.0625 2.25 0.0625 5 1 C6.67849824 3.2308475 7.75999263 5.47405906 9 8 C8.01 8.99 7.02 9.98 6 11 C5.690625 9.88625 5.38125 8.7725 5.0625 7.625 C3.78258676 2.89376241 3.78258676 2.89376241 0 0 Z " fill="#131E46" transform="translate(60,108)"/>
<path d="M0 0 C2.31 0 4.62 0 7 0 C6.67 0.66 6.34 1.32 6 2 C6.99 2.66 7.98 3.32 9 4 C5.37 4 1.74 4 -2 4 C-2 3.67 -2 3.34 -2 3 C-0.35 3 1.3 3 3 3 C3 2.34 3 1.68 3 1 C2.01 0.67 1.02 0.34 0 0 Z " fill="#42567C" transform="translate(124,123)"/>
<path d="M0 0 C0.99 0.33 1.98 0.66 3 1 C2.2884375 1.8353125 2.2884375 1.8353125 1.5625 2.6875 C-0.12395996 5.18346074 -0.58953107 7.0446237 -1 10 C-1.66 9.67 -2.32 9.34 -3 9 C-2.25 2.25 -2.25 2.25 0 0 Z " fill="#132657" transform="translate(115,78)"/>
<path d="M0 0 C1.32 0.33 2.64 0.66 4 1 C3.67 2.32 3.34 3.64 3 5 C1.35 4.67 -0.3 4.34 -2 4 C-1.34 2.68 -0.68 1.36 0 0 Z " fill="#2B3E74" transform="translate(132,99)"/>
<path d="M0 0 C2.31 0 4.62 0 7 0 C7.33 0.99 7.66 1.98 8 3 C5.36 2.67 2.72 2.34 0 2 C0 1.34 0 0.68 0 0 Z " fill="#203E6A" transform="translate(122,99)"/>
<path d="M0 0 C2.03144641 0.93446535 4.03533587 1.93224776 6 3 C6 3.66 6 4.32 6 5 C2.31245243 4.50168276 0.39509338 3.89932357 -2 1 C-1.34 0.67 -0.68 0.34 0 0 Z " fill="#0B1D45" transform="translate(75,72)"/>
</svg>
